<svg width="25" height="25" viewBox="0 0 25 25" fill="none" xmlns="http://www.w3.org/2000/svg">
<path d="M22.2207 12.0554C22.2207 13.9838 21.6489 15.8688 20.5775 17.4722C19.5062 19.0756 17.9834 20.3253 16.2019 21.0632C14.4203 21.8012 12.4599 21.9943 10.5686 21.6181C8.67726 21.2419 6.93998 20.3133 5.57642 18.9497C4.21285 17.5861 3.28426 15.8489 2.90805 13.9576C2.53185 12.0662 2.72493 10.1058 3.46288 8.32426C4.20084 6.54268 5.45052 5.01993 7.0539 3.94859C8.65728 2.87725 10.5423 2.30542 12.4707 2.30542C15.0556 2.30864 17.5337 3.33691 19.3614 5.16469C21.1892 6.99247 22.2175 9.47055 22.2207 12.0554Z" fill="black"/>
</svg>
