<svg width="120" height="120" viewBox="0 0 120 120" fill="none" xmlns="http://www.w3.org/2000/svg">
  <rect width="120" height="120" rx="20" fill="url(#gradient1)"/>
  <defs>
    <linearGradient id="gradient1" x1="0%" y1="0%" x2="100%" y2="100%">
      <stop offset="0%" style="stop-color:#EF4444;stop-opacity:1" />
      <stop offset="100%" style="stop-color:#EC4899;stop-opacity:1" />
    </linearGradient>
  </defs>
  <!-- Fire/flame -->
  <path d="M60 20 C70 20 75 30 75 40 C75 50 70 60 60 70 C50 60 45 50 45 40 C45 30 50 20 60 20 Z" fill="white" opacity="0.9"/>
  <!-- Inner flame -->
  <path d="M60 25 C65 25 68 32 68 38 C68 44 65 50 60 55 C55 50 52 44 52 38 C52 32 55 25 60 25 Z" fill="white" opacity="0.7"/>
  <!-- Speed lines -->
  <path d="M20 40 L35 40" stroke="white" stroke-width="3" stroke-linecap="round" opacity="0.8"/>
  <path d="M20 50 L40 50" stroke="white" stroke-width="3" stroke-linecap="round" opacity="0.8"/>
  <path d="M20 60 L35 60" stroke="white" stroke-width="3" stroke-linecap="round" opacity="0.8"/>
  <path d="M85 40 L100 40" stroke="white" stroke-width="3" stroke-linecap="round" opacity="0.8"/>
  <path d="M80 50 L100 50" stroke="white" stroke-width="3" stroke-linecap="round" opacity="0.8"/>
  <path d="M85 60 L100 60" stroke="white" stroke-width="3" stroke-linecap="round" opacity="0.8"/>
  <!-- Clock elements -->
  <circle cx="60" cy="85" r="15" fill="white" opacity="0.9"/>
  <path d="M60 85 L60 75" stroke="#EF4444" stroke-width="2" stroke-linecap="round"/>
  <path d="M60 85 L68 85" stroke="#EF4444" stroke-width="2" stroke-linecap="round"/>
</svg> 