<svg width="120" height="120" viewBox="0 0 120 120" fill="none" xmlns="http://www.w3.org/2000/svg">
  <rect width="120" height="120" rx="20" fill="url(#gradient1)"/>
  <defs>
    <linearGradient id="gradient1" x1="0%" y1="0%" x2="100%" y2="100%">
      <stop offset="0%" style="stop-color:#F59E0B;stop-opacity:1" />
      <stop offset="100%" style="stop-color:#F97316;stop-opacity:1" />
    </linearGradient>
  </defs>
  <!-- Trophy base -->
  <rect x="45" y="80" width="30" height="8" rx="4" fill="white" opacity="0.9"/>
  <!-- Trophy body -->
  <rect x="50" y="40" width="20" height="40" rx="10" fill="white" opacity="0.9"/>
  <!-- Trophy handles -->
  <path d="M50 50 Q40 50 40 60 Q40 70 50 70" stroke="white" stroke-width="3" fill="none" opacity="0.9"/>
  <path d="M70 50 Q80 50 80 60 Q80 70 70 70" stroke="white" stroke-width="3" fill="none" opacity="0.9"/>
  <!-- Trophy top -->
  <circle cx="60" cy="35" r="8" fill="white" opacity="0.9"/>
  <!-- Stars -->
  <path d="M25 30 L27 35 L32 35 L28 38 L30 43 L25 40 L20 43 L22 38 L18 35 L23 35 Z" fill="white" opacity="0.8"/>
  <path d="M95 30 L97 35 L102 35 L98 38 L100 43 L95 40 L90 43 L92 38 L88 35 L93 35 Z" fill="white" opacity="0.8"/>
  <path d="M60 15 L62 20 L67 20 L63 23 L65 28 L60 25 L55 28 L57 23 L53 20 L58 20 Z" fill="white" opacity="0.8"/>
</svg> 